<svg width="482" height="252" viewBox="0 0 482 252" fill="none" xmlns="http://www.w3.org/2000/svg">
<path d="M27.6972 114.512L72.1899 149.749" stroke="#FF0000" stroke-width="6"/>
<path d="M101.909 113.772L68.6953 148.797" stroke="#FF0000" stroke-width="6"/>
<path d="M101.641 43.2555L69.6951 147.377" stroke="#FF0000" stroke-width="6"/>
<path d="M30.4053 42.6496L69.6966 147.841" stroke="#FF0000" stroke-width="6"/>
<path d="M100.43 112.664V44.002H29.4297V112.664H100.43Z" stroke="#FF0000" stroke-width="8"/>
<path d="M478.132 196.253C480.289 195.774 481.648 193.637 481.169 191.481L473.363 156.337C472.884 154.181 470.747 152.821 468.591 153.3C466.434 153.779 465.074 155.915 465.553 158.072L472.492 189.311L441.254 196.25C439.097 196.729 437.737 198.865 438.216 201.022C438.695 203.179 440.832 204.538 442.989 204.059L478.132 196.253ZM8.23182 192.343L7.25728 196.222C119.557 224.433 189.835 193.372 255.176 171.149C287.829 160.044 319.052 151.203 353.92 152.554C388.715 153.902 427.512 165.423 475.117 195.722L477.265 192.348L479.412 188.974C430.873 158.079 390.719 145.974 354.23 144.56C317.813 143.149 285.419 152.413 252.6 163.575C186.994 185.888 118.899 216.019 9.20637 188.463L8.23182 192.343Z" fill="black"/>
<path d="M201.138 105.451L180.607 137.343" stroke="#00B050" stroke-width="6"/>
<path d="M275.131 89.0729L180.607 137.344" stroke="#00B050" stroke-width="6"/>
<path d="M275.084 28.8465L183.607 133.342" stroke="#00B050" stroke-width="6"/>
<path d="M203.844 28.1991L183.607 137.346" stroke="#00B050" stroke-width="6"/>
<path d="M273.877 88.3682V29.3457H202.877V102.859L273.877 88.3682Z" stroke="#00B050" stroke-width="8"/>
<path d="M456.859 96.6747L372.768 110.278" stroke="#000DFF" stroke-width="6"/>
<path d="M385.727 76.9123L371.807 112.75" stroke="#000DFF" stroke-width="6"/>
<path d="M385.773 4.21695L372.768 112.748" stroke="#000DFF" stroke-width="6"/>
<path d="M456.404 19.4473L369.884 110.276" stroke="#000DFF" stroke-width="6"/>
<path d="M387.087 76.9043V4.91699L455.033 19.0107V94.3145L387.087 76.9043Z" stroke="#000DFF" stroke-width="8"/>
</svg>
